<svg width="40" height="40" viewBox="0 0 40 40" fill="none" xmlns="http://www.w3.org/2000/svg">
<rect width="40" height="40" rx="10" fill="#EFEFF4"/>
<path fill-rule="evenodd" clip-rule="evenodd" d="M25.8335 19.1666H20.8335V14.1666C20.8335 13.7058 20.4602 13.3333 20.0002 13.3333C19.5402 13.3333 19.1668 13.7058 19.1668 14.1666V19.1666H14.1668C13.7068 19.1666 13.3335 19.5391 13.3335 19.9999C13.3335 20.4608 13.7068 20.8333 14.1668 20.8333H19.1668V25.8333C19.1668 26.2941 19.5402 26.6666 20.0002 26.6666C20.4602 26.6666 20.8335 26.2941 20.8335 25.8333V20.8333H25.8335C26.2935 20.8333 26.6668 20.4608 26.6668 19.9999C26.6668 19.5391 26.2935 19.1666 25.8335 19.1666Z" fill="#313439"/>
<mask id="mask0" mask-type="alpha" maskUnits="userSpaceOnUse" x="13" y="13" width="14" height="14">
<path fill-rule="evenodd" clip-rule="evenodd" d="M25.8335 19.1666H20.8335V14.1666C20.8335 13.7058 20.4602 13.3333 20.0002 13.3333C19.5402 13.3333 19.1668 13.7058 19.1668 14.1666V19.1666H14.1668C13.7068 19.1666 13.3335 19.5391 13.3335 19.9999C13.3335 20.4608 13.7068 20.8333 14.1668 20.8333H19.1668V25.8333C19.1668 26.2941 19.5402 26.6666 20.0002 26.6666C20.4602 26.6666 20.8335 26.2941 20.8335 25.8333V20.8333H25.8335C26.2935 20.8333 26.6668 20.4608 26.6668 19.9999C26.6668 19.5391 26.2935 19.1666 25.8335 19.1666Z" fill="white"/>
</mask>
<g mask="url(#mask0)">
</g>
</svg>
