<svg width="20" height="20" viewBox="0 0 20 20" fill="none" xmlns="http://www.w3.org/2000/svg">
<path fill-rule="evenodd" clip-rule="evenodd" d="M5.83317 8.33329C5.83317 7.87329 6.2065 7.49996 6.6665 7.49996C7.1265 7.49996 7.49984 7.87329 7.49984 8.33329C7.49984 8.79329 7.1265 9.16663 6.6665 9.16663C6.2065 9.16663 5.83317 8.79329 5.83317 8.33329ZM9.99984 7.49996C9.53984 7.49996 9.1665 7.87329 9.1665 8.33329C9.1665 8.79329 9.53984 9.16663 9.99984 9.16663C10.4598 9.16663 10.8332 8.79329 10.8332 8.33329C10.8332 7.87329 10.4598 7.49996 9.99984 7.49996ZM13.3332 7.49996C12.8732 7.49996 12.4998 7.87329 12.4998 8.33329C12.4998 8.79329 12.8732 9.16663 13.3332 9.16663C13.7932 9.16663 14.1665 8.79329 14.1665 8.33329C14.1665 7.87329 13.7932 7.49996 13.3332 7.49996ZM16.6665 12.5C16.6665 12.9591 16.2923 13.3333 15.8332 13.3333H7.12817C6.67567 13.3333 6.23067 13.4566 5.8415 13.69L3.33317 15.195V4.16663C3.33317 3.70746 3.70734 3.33329 4.1665 3.33329H15.8332C16.2923 3.33329 16.6665 3.70746 16.6665 4.16663V12.5ZM15.8332 1.66663H4.1665C2.78817 1.66663 1.6665 2.78829 1.6665 4.16663V16.6666C1.6665 16.9666 1.82817 17.2441 2.089 17.3916C2.2165 17.4641 2.35817 17.5 2.49984 17.5C2.64817 17.5 2.7965 17.4608 2.929 17.3808L6.699 15.1191C6.829 15.0408 6.97734 15 7.12817 15H15.8332C17.2115 15 18.3332 13.8783 18.3332 12.5V4.16663C18.3332 2.78829 17.2115 1.66663 15.8332 1.66663Z" fill="white"/>
<mask id="mask0" mask-type="alpha" maskUnits="userSpaceOnUse" x="1" y="1" width="18" height="17">
<path fill-rule="evenodd" clip-rule="evenodd" d="M5.83317 8.33329C5.83317 7.87329 6.2065 7.49996 6.6665 7.49996C7.1265 7.49996 7.49984 7.87329 7.49984 8.33329C7.49984 8.79329 7.1265 9.16663 6.6665 9.16663C6.2065 9.16663 5.83317 8.79329 5.83317 8.33329ZM9.99984 7.49996C9.53984 7.49996 9.1665 7.87329 9.1665 8.33329C9.1665 8.79329 9.53984 9.16663 9.99984 9.16663C10.4598 9.16663 10.8332 8.79329 10.8332 8.33329C10.8332 7.87329 10.4598 7.49996 9.99984 7.49996ZM13.3332 7.49996C12.8732 7.49996 12.4998 7.87329 12.4998 8.33329C12.4998 8.79329 12.8732 9.16663 13.3332 9.16663C13.7932 9.16663 14.1665 8.79329 14.1665 8.33329C14.1665 7.87329 13.7932 7.49996 13.3332 7.49996ZM16.6665 12.5C16.6665 12.9591 16.2923 13.3333 15.8332 13.3333H7.12817C6.67567 13.3333 6.23067 13.4566 5.8415 13.69L3.33317 15.195V4.16663C3.33317 3.70746 3.70734 3.33329 4.1665 3.33329H15.8332C16.2923 3.33329 16.6665 3.70746 16.6665 4.16663V12.5ZM15.8332 1.66663H4.1665C2.78817 1.66663 1.6665 2.78829 1.6665 4.16663V16.6666C1.6665 16.9666 1.82817 17.2441 2.089 17.3916C2.2165 17.4641 2.35817 17.5 2.49984 17.5C2.64817 17.5 2.7965 17.4608 2.929 17.3808L6.699 15.1191C6.829 15.0408 6.97734 15 7.12817 15H15.8332C17.2115 15 18.3332 13.8783 18.3332 12.5V4.16663C18.3332 2.78829 17.2115 1.66663 15.8332 1.66663Z" fill="white"/>
</mask>
<g mask="url(#mask0)">
</g>
</svg>
