<svg width="131" height="117" viewBox="0 0 131 117" fill="none" xmlns="http://www.w3.org/2000/svg">
<g clip-path="url(#clip0)">
<path d="M110.086 53.2483C106.875 42.5136 114.143 38.1935 112.452 25.3769C111.064 14.8298 103.998 1.46924 94.8375 0.106307C84.598 -1.41293 81.3362 13.4981 64.3461 18.8623C47.5516 24.164 39.4003 13.1855 28.593 17.2993C1.95644 27.4463 3.99425 112.299 21.2367 116.812C31.2996 119.445 40.1511 93.0611 59.0907 94.4115C73.8601 95.4619 76.5666 112.086 90.6357 112.649C108.364 113.349 128.509 87.9157 124.282 72.5295C121.903 63.8455 113.317 64.0393 110.086 53.2483Z" fill="#EAF4FE"/>
<path d="M63.5895 7.0523C63.3687 6.83348 63.0154 6.83348 62.7945 7.0523L61.5201 8.3152L60.2457 7.0523C60.0249 6.83348 59.6716 6.83348 59.4508 7.0523C59.23 7.27112 59.23 7.62123 59.4508 7.84005L60.7252 9.10296L59.4508 10.3659C59.23 10.5847 59.23 10.9348 59.4508 11.1536C59.6716 11.3724 60.0249 11.3724 60.2457 11.1536L61.5201 9.89071L62.6368 10.9973C62.8576 11.2161 63.2109 11.2161 63.4318 10.9973C63.6526 10.7785 63.6526 10.4284 63.4318 10.2096L62.3151 9.10296L63.5895 7.84005C63.8103 7.62123 63.8103 7.27112 63.5895 7.0523Z" fill="#C1C1C1"/>
<path d="M8.27795 107.578C8.05714 107.359 7.70383 107.359 7.48302 107.578L6.2086 108.841L4.93418 107.578C4.71336 107.359 4.36006 107.359 4.13924 107.578C3.91843 107.797 3.91843 108.147 4.13924 108.366L5.41366 109.629L4.29697 110.735C4.07615 110.954 4.07615 111.304 4.29697 111.523C4.51778 111.742 4.87109 111.742 5.0919 111.523L6.2086 110.417L7.32529 111.523C7.54611 111.742 7.89941 111.742 8.12022 111.523C8.34104 111.304 8.34104 110.954 8.12022 110.735L7.00353 109.629L8.27795 108.366C8.49877 108.147 8.49877 107.797 8.27795 107.578Z" fill="#FE9595"/>
<path d="M130.868 71.1541C130.71 70.9978 130.47 70.979 130.287 71.104C127.902 72.7358 127.461 72.7358 125.076 71.104C124.893 70.979 124.653 71.004 124.496 71.1541C124.338 71.3104 124.319 71.5479 124.445 71.7292C126.092 74.0925 126.092 74.5301 124.445 76.8934C124.319 77.0747 124.344 77.3123 124.496 77.4686C124.653 77.6249 124.893 77.6436 125.076 77.5186C127.461 75.8868 127.902 75.8868 130.287 77.5186C130.47 77.6436 130.71 77.6186 130.868 77.4686C131.025 77.3123 131.044 77.0747 130.918 76.8934C129.271 74.5301 129.271 74.0925 130.918 71.7292C131.044 71.5479 131.025 71.3041 130.868 71.1541ZM129.189 75.793C128.098 75.2679 127.278 75.2679 126.186 75.793C126.716 74.7115 126.716 73.8987 126.186 72.8171C127.278 73.3423 128.098 73.3423 129.189 72.8171C128.653 73.9049 128.653 74.7115 129.189 75.793Z" fill="#FEC4C4"/>
<path d="M10.0821 31.5226C9.89288 31.3726 9.67837 31.2725 9.45125 31.235C9.21781 31.1913 8.97176 31.2163 8.73833 31.3038L0.889929 34.1985C0.429372 34.3673 0.101304 34.7549 0.0255958 35.2363C-0.0564212 35.7177 0.120231 36.1928 0.498771 36.4992L6.95919 41.7884C7.33773 42.101 7.84245 42.1822 8.30301 42.0134C8.76357 41.8446 9.08532 41.457 9.16734 40.9756L10.5616 32.7855C10.6373 32.3041 10.4607 31.8352 10.0821 31.5226ZM9.65944 32.6355L8.26515 40.8256C8.2273 41.0569 8.05065 41.1444 7.97494 41.1694C7.93078 41.1882 7.84245 41.2132 7.7352 41.1944C7.67211 41.1819 7.5964 41.1569 7.527 41.0944L1.07289 35.8115C0.889929 35.6614 0.902547 35.4676 0.915165 35.3926C0.927783 35.3176 0.984564 35.13 1.20538 35.0487L9.06009 32.1478C9.2809 32.0665 9.44494 32.1728 9.50803 32.2228C9.56481 32.2666 9.70361 32.4104 9.65944 32.6355Z" fill="#FFD599"/>
<path d="M118.029 19.8251C114.881 18.9623 114.275 18.3621 113.411 15.2486C113.354 15.0548 113.177 14.9235 112.975 14.9235C112.773 14.9235 112.597 15.0548 112.54 15.2486C111.669 18.3684 111.064 18.9686 107.922 19.8251C107.726 19.8814 107.594 20.0564 107.594 20.2565C107.594 20.4565 107.726 20.6316 107.922 20.6879C111.07 21.5506 111.676 22.1508 112.54 25.2643C112.597 25.4581 112.773 25.5894 112.975 25.5894C113.177 25.5894 113.354 25.4581 113.411 25.2643C114.281 22.1446 114.887 21.5444 118.029 20.6879C118.224 20.6316 118.357 20.4565 118.357 20.2565C118.357 20.0564 118.224 19.8814 118.029 19.8251ZM112.975 23.6451C112.288 21.757 111.461 20.9379 109.556 20.2565C111.461 19.575 112.288 18.756 112.975 16.8679C113.663 18.756 114.489 19.575 116.395 20.2565C114.483 20.9379 113.657 21.757 112.975 23.6451Z" fill="#CED3E2"/>
<path d="M109.562 95.4494H109.555L28.0619 94.9305C27.4815 94.9242 27.0146 94.4553 27.0146 93.8801C27.021 93.3049 27.4878 92.8423 28.0682 92.8423H28.0746L109.568 93.3612C110.148 93.3675 110.615 93.8364 110.615 94.4115C110.609 94.9867 110.142 95.4494 109.562 95.4494Z" fill="#3A5C91"/>
<path d="M119.29 95.4494H116.136C115.555 95.4494 115.082 94.9805 115.082 94.4053C115.082 93.8301 115.555 93.3612 116.136 93.3612H119.29C119.871 93.3612 120.344 93.8301 120.344 94.4053C120.344 94.9805 119.871 95.4494 119.29 95.4494Z" fill="#3A5C91"/>
<path d="M96.3823 94.2989H26.0054C23.5008 94.2989 21.4756 92.2857 21.4756 89.8099V47.6277H100.918V89.8099C100.912 92.292 98.887 94.2989 96.3823 94.2989Z" fill="white"/>
<path opacity="0.16" d="M55.5186 94.2989H38.7809L38.3203 77.4748L55.5186 94.2989Z" fill="black"/>
<path d="M96.3822 95.343H26.0053C22.9265 95.343 20.4219 92.861 20.4219 89.81V47.6277C20.4219 47.0525 20.895 46.5836 21.4755 46.5836H100.918C101.499 46.5836 101.972 47.0525 101.972 47.6277V89.81C101.966 92.861 99.461 95.343 96.3822 95.343ZM22.5228 48.6718V89.81C22.5228 91.7106 24.0811 93.2611 26.0053 93.2611H96.3822C98.3001 93.2611 99.8648 91.7168 99.8648 89.81V48.6718H22.5228Z" fill="#3A5C91"/>
<path opacity="0.16" d="M96.3696 28.6904H26.018C22.9329 28.6904 20.4219 31.1787 20.4219 34.236V49.9785C20.4219 50.5537 20.895 51.0226 21.4755 51.0226H100.918C101.499 51.0226 101.972 50.5537 101.972 49.9785V34.2297C101.966 31.1725 99.4547 28.6904 96.3696 28.6904Z" fill="black"/>
<path d="M100.912 47.6277H21.4688V31.8852C21.4688 29.3969 23.5002 27.3837 26.0112 27.3837H96.3692C98.8801 27.3837 100.912 29.3969 100.912 31.8852V47.6277Z" fill="#A4E4FF"/>
<path d="M96.3691 26.3459H26.0111C22.926 26.3459 20.415 28.8342 20.415 31.8914V47.6339C20.415 48.2091 20.8882 48.678 21.4686 48.678H100.912C101.492 48.678 101.965 48.2091 101.965 47.6339V31.8852C101.965 28.8279 99.4542 26.3459 96.3691 26.3459ZM99.8643 46.5899H22.5222V31.8852C22.5222 29.9783 24.0869 28.4278 26.0111 28.4278H96.3691C98.2933 28.4278 99.8579 29.9783 99.8579 31.8852V46.5899H99.8643Z" fill="#3A5C91"/>
<path d="M96.3698 28.4279H26.0182C24.0939 28.4279 22.5293 29.9784 22.5293 31.8852V34.7486C22.5293 32.8418 24.0939 31.2913 26.0182 31.2913H96.3761C98.3004 31.2913 99.865 32.8418 99.865 34.7486V31.8852C99.865 29.9784 98.2941 28.4279 96.3698 28.4279Z" fill="#DEF6FF"/>
<path d="M41.6139 63.9329H37.0715C35.5068 63.9329 34.2324 62.6762 34.2324 61.1195V56.6181C34.2324 55.0676 35.5005 53.8047 37.0715 53.8047H41.6139C43.1786 53.8047 44.453 55.0613 44.453 56.6181V61.1195C44.453 62.6762 43.1849 63.9329 41.6139 63.9329Z" fill="#C2DDF3"/>
<path d="M63.1784 63.9329H58.6359C57.0713 63.9329 55.7969 62.6762 55.7969 61.1195V56.6181C55.7969 55.0676 57.065 53.8047 58.6359 53.8047H63.1784C64.743 53.8047 66.0174 55.0613 66.0174 56.6181V61.1195C66.0174 62.6762 64.7493 63.9329 63.1784 63.9329Z" fill="#FF9797"/>
<path d="M84.7419 63.9329H80.1994C78.6348 63.9329 77.3604 62.6762 77.3604 61.1195V56.6181C77.3604 55.0676 78.6285 53.8047 80.1994 53.8047H84.7419C86.3065 53.8047 87.5809 55.0613 87.5809 56.6181V61.1195C87.5809 62.6762 86.3065 63.9329 84.7419 63.9329Z" fill="#C2DDF3"/>
<path d="M41.6139 81.0884H37.0715C35.5068 81.0884 34.2324 79.8318 34.2324 78.275V73.7736C34.2324 72.2231 35.5005 70.9602 37.0715 70.9602H41.6139C43.1786 70.9602 44.453 72.2169 44.453 73.7736V78.275C44.453 79.8255 43.1849 81.0884 41.6139 81.0884Z" fill="#C2DDF3"/>
<path d="M63.1784 81.0884H58.6359C57.0713 81.0884 55.7969 79.8318 55.7969 78.275V73.7736C55.7969 72.2231 57.065 70.9602 58.6359 70.9602H63.1784C64.743 70.9602 66.0174 72.2169 66.0174 73.7736V78.275C66.0174 79.8255 64.7493 81.0884 63.1784 81.0884Z" fill="#C2DDF3"/>
<path d="M84.7419 81.0884H80.1994C78.6348 81.0884 77.3604 79.8318 77.3604 78.275V73.7736C77.3604 72.2231 78.6285 70.9602 80.1994 70.9602H84.7419C86.3065 70.9602 87.5809 72.2169 87.5809 73.7736V78.275C87.5809 79.8255 86.3065 81.0884 84.7419 81.0884Z" fill="#FF9797"/>
<path d="M39.9689 38.1224C41.4102 36.6941 41.4102 34.3784 39.9689 32.9501C38.5275 31.5218 36.1907 31.5218 34.7494 32.9501C33.3081 34.3784 33.3081 36.6941 34.7494 38.1224C36.1907 39.5507 38.5275 39.5507 39.9689 38.1224Z" fill="white"/>
<path d="M37.3612 39.9753C34.8944 39.9753 32.8818 37.9872 32.8818 35.5364C32.8818 33.0919 34.8881 31.0975 37.3612 31.0975C39.828 31.0975 41.8406 33.0856 41.8406 35.5364C41.8343 37.9872 39.828 39.9753 37.3612 39.9753ZM37.3612 32.6667C35.765 32.6667 34.4591 33.9546 34.4591 35.5426C34.4591 37.1244 35.7587 38.4186 37.3612 38.4186C38.9574 38.4186 40.2634 37.1307 40.2634 35.5426C40.2571 33.9546 38.9574 32.6667 37.3612 32.6667Z" fill="#3A5C91"/>
<path opacity="0.16" d="M38.2072 35.3363C38.2072 35.6864 38.1441 36.024 38.0305 36.3303C36.0495 36.074 36.2766 35.5801 35.7467 33.7545C35.5952 33.2356 35.5448 32.1353 35.5258 31.5726C35.5195 31.5101 35.5195 31.4413 35.5195 31.3788V26.4022H37.6204V31.3788C37.6204 31.8789 37.5826 34.0171 38.2072 35.3363Z" fill="black"/>
<path d="M37.3615 36.5804C34.4342 36.5804 32.0557 34.2234 32.0557 31.3225V23.4512C32.0557 20.5503 34.4342 18.1933 37.3615 18.1933C40.2889 18.1933 42.6674 20.5503 42.6674 23.4512V27.39C42.6674 27.9652 42.1942 28.4341 41.6138 28.4341C41.0334 28.4341 40.5665 27.9589 40.5665 27.3837V23.445C40.5665 21.6944 39.1281 20.269 37.3615 20.269C35.595 20.269 34.1566 21.6944 34.1566 23.445V31.3225C34.1566 33.0731 35.595 34.4985 37.3615 34.4985C37.942 34.4985 38.4151 34.9674 38.4151 35.5426C38.4151 36.1178 37.942 36.5804 37.3615 36.5804Z" fill="#3A5C91"/>
<path d="M64.7583 36.4746C65.2772 34.5213 64.1001 32.5209 62.129 32.0066C60.1579 31.4924 58.1393 32.6589 57.6203 34.6122C57.1014 36.5655 58.2785 38.5658 60.2496 39.0801C62.2207 39.5944 64.2393 38.4278 64.7583 36.4746Z" fill="white"/>
<path d="M61.1913 39.9753C58.7245 39.9753 56.7119 37.9871 56.7119 35.5363C56.7119 33.0918 58.7182 31.0974 61.1913 31.0974C63.6581 31.0974 65.6707 33.0856 65.6707 35.5363C65.6707 37.9871 63.6644 39.9753 61.1913 39.9753ZM61.1913 32.6667C59.5951 32.6667 58.2892 33.9546 58.2892 35.5426C58.2892 37.1243 59.5888 38.4185 61.1913 38.4185C62.7875 38.4185 64.0934 37.1306 64.0934 35.5426C64.0934 33.9546 62.7938 32.6667 61.1913 32.6667Z" fill="#3A5C91"/>
<path opacity="0.16" d="M62.1242 35.3363C62.1242 35.6864 62.0611 36.024 61.9475 36.3303C59.9665 36.074 60.1936 35.5801 59.6636 33.7545C59.5122 33.2356 59.4618 32.1353 59.4428 31.5726C59.4365 31.5101 59.4365 31.4413 59.4365 31.3788V26.4022H61.5374V31.3788C61.5437 31.8789 61.5059 34.0171 62.1242 35.3363Z" fill="black"/>
<path d="M61.1906 36.5804C58.2633 36.5804 55.8848 34.2234 55.8848 31.3225V23.4512C55.8848 20.5503 58.2633 18.1933 61.1906 18.1933C64.118 18.1933 66.4965 20.5503 66.4965 23.4512V27.39C66.4965 27.9652 66.0233 28.4341 65.4429 28.4341C64.8625 28.4341 64.3893 27.9652 64.3893 27.39V23.4512C64.3893 21.7007 62.9509 20.2752 61.1843 20.2752C59.4178 20.2752 57.9794 21.7007 57.9794 23.4512V31.3225C57.9794 33.0731 59.4178 34.4985 61.1843 34.4985C61.7648 34.4985 62.2379 34.9674 62.2379 35.5426C62.2379 36.1178 61.7711 36.5804 61.1906 36.5804Z" fill="#3A5C91"/>
<path d="M88.6074 36.4019C89.0877 34.4389 87.8711 32.4618 85.8903 31.9859C83.9094 31.51 81.9142 32.7155 81.434 34.6785C80.9538 36.6415 82.1703 38.6186 84.1512 39.0945C86.132 39.5704 88.1272 38.3649 88.6074 36.4019Z" fill="white"/>
<path d="M85.0272 39.9753C82.5604 39.9753 80.5479 37.9871 80.5479 35.5363C80.5479 33.0918 82.5541 31.0974 85.0272 31.0974C87.5004 31.0974 89.5066 33.0856 89.5066 35.5363C89.5066 37.9871 87.4941 39.9753 85.0272 39.9753ZM85.0272 32.6667C83.4311 32.6667 82.1251 33.9546 82.1251 35.5426C82.1251 37.1243 83.4248 38.4185 85.0272 38.4185C86.6234 38.4185 87.9294 37.1306 87.9294 35.5426C87.9294 33.9546 86.6234 32.6667 85.0272 32.6667Z" fill="#3A5C91"/>
<path opacity="0.16" d="M85.8224 35.28C85.8224 35.6301 85.7593 35.9677 85.6457 36.2741C83.6647 36.0177 83.8918 35.5238 83.3619 33.6982C83.2105 33.1793 83.16 32.079 83.1411 31.5163C83.1348 31.4538 83.1348 31.385 83.1348 31.3225V26.3459H85.2357V31.3225C85.242 31.8226 85.2041 33.9608 85.8224 35.28Z" fill="black"/>
<path d="M85.0266 36.5804C82.0992 36.5804 79.7207 34.2234 79.7207 31.3225V23.4512C79.7207 20.5503 82.0992 18.1933 85.0266 18.1933C87.9539 18.1933 90.3324 20.5503 90.3324 23.4512V27.39C90.3324 27.9652 89.8592 28.4341 89.2788 28.4341C88.6984 28.4341 88.2252 27.9652 88.2252 27.39V23.4512C88.2252 21.7007 86.7868 20.2752 85.0203 20.2752C83.2537 20.2752 81.8153 21.7007 81.8153 23.4512V31.3225C81.8153 33.0731 83.2537 34.4985 85.0203 34.4985C85.6007 34.4985 86.0739 34.9674 86.0739 35.5426C86.0739 36.1178 85.607 36.5804 85.0266 36.5804Z" fill="#3A5C91"/>
<path d="M47.0085 94.299C42.6238 94.299 39.0655 90.7729 39.0655 86.4277V81.6512C39.0655 79.0128 36.9078 76.8684 34.2391 76.8684H29.4128C25.028 76.8684 21.4697 73.3423 21.4697 68.9971V73.4986C23.0407 84.3208 31.6461 92.7735 42.567 94.3303L47.0085 94.299Z" fill="#FFD599"/>
<path d="M42.5664 95.3681C42.5159 95.3681 42.4654 95.3618 42.415 95.3555C36.8252 94.5615 31.7591 92.0607 27.7655 88.122C23.7656 84.177 21.223 79.1691 20.4218 73.6423C20.4155 73.5923 20.4092 73.5423 20.4092 73.4923V68.9909C20.4092 68.4157 20.8824 67.9468 21.4628 67.9468C22.0432 67.9468 22.5164 68.4157 22.5164 68.9909C22.5164 72.7546 25.6078 75.8243 29.4121 75.8243H34.2322C37.4687 75.8243 40.1059 78.4376 40.1059 81.6449V86.4277C40.1059 90.1914 43.1973 93.2611 47.0016 93.2611C47.582 93.2611 48.0489 93.7238 48.0552 94.299C48.0552 94.8741 47.5883 95.343 47.0079 95.343L42.5664 95.3681C42.5727 95.3681 42.5727 95.3681 42.5664 95.3681ZM22.8255 75.0616C24.8066 83.9206 31.9168 90.9604 40.8882 92.961C39.1154 91.3293 38.005 89.0035 38.005 86.4277V81.6512C38.005 79.588 36.3142 77.9125 34.2322 77.9125H29.4121C26.8191 77.9125 24.4722 76.8121 22.8255 75.0616Z" fill="#3A5C91"/>
<path opacity="0.16" d="M99.8331 43.3514H22.5479V46.74H99.8331V43.3514Z" fill="black"/>
</g>
<defs>
<clipPath id="clip0">
<rect width="131" height="117" fill="white"/>
</clipPath>
</defs>
</svg>
