<svg width="20" height="20" viewBox="0 0 20 20" fill="none" xmlns="http://www.w3.org/2000/svg">
<path fill-rule="evenodd" clip-rule="evenodd" d="M9.16663 6.66675C9.16663 6.20675 9.53996 5.83341 9.99996 5.83341C10.46 5.83341 10.8333 6.20675 10.8333 6.66675V10.8334C10.8333 11.2934 10.46 11.6667 9.99996 11.6667C9.53996 11.6667 9.16663 11.2934 9.16663 10.8334V6.66675ZM9.16663 13.3334C9.16663 12.8734 9.53996 12.5001 9.99996 12.5001C10.46 12.5001 10.8333 12.8734 10.8333 13.3334C10.8333 13.7934 10.46 14.1667 9.99996 14.1667C9.53996 14.1667 9.16663 13.7934 9.16663 13.3334ZM9.99996 16.6667C6.32413 16.6667 3.33329 13.6759 3.33329 10.0001C3.33329 6.32425 6.32413 3.33341 9.99996 3.33341C13.6758 3.33341 16.6666 6.32425 16.6666 10.0001C16.6666 13.6759 13.6758 16.6667 9.99996 16.6667ZM9.99996 1.66675C5.39746 1.66675 1.66663 5.39758 1.66663 10.0001C1.66663 14.6026 5.39746 18.3334 9.99996 18.3334C14.6025 18.3334 18.3333 14.6026 18.3333 10.0001C18.3333 5.39758 14.6025 1.66675 9.99996 1.66675Z" fill="#EB5757"/>
<mask id="mask0" mask-type="alpha" maskUnits="userSpaceOnUse" x="1" y="1" width="18" height="18">
<path fill-rule="evenodd" clip-rule="evenodd" d="M9.16663 6.66675C9.16663 6.20675 9.53996 5.83341 9.99996 5.83341C10.46 5.83341 10.8333 6.20675 10.8333 6.66675V10.8334C10.8333 11.2934 10.46 11.6667 9.99996 11.6667C9.53996 11.6667 9.16663 11.2934 9.16663 10.8334V6.66675ZM9.16663 13.3334C9.16663 12.8734 9.53996 12.5001 9.99996 12.5001C10.46 12.5001 10.8333 12.8734 10.8333 13.3334C10.8333 13.7934 10.46 14.1667 9.99996 14.1667C9.53996 14.1667 9.16663 13.7934 9.16663 13.3334ZM9.99996 16.6667C6.32413 16.6667 3.33329 13.6759 3.33329 10.0001C3.33329 6.32425 6.32413 3.33341 9.99996 3.33341C13.6758 3.33341 16.6666 6.32425 16.6666 10.0001C16.6666 13.6759 13.6758 16.6667 9.99996 16.6667ZM9.99996 1.66675C5.39746 1.66675 1.66663 5.39758 1.66663 10.0001C1.66663 14.6026 5.39746 18.3334 9.99996 18.3334C14.6025 18.3334 18.3333 14.6026 18.3333 10.0001C18.3333 5.39758 14.6025 1.66675 9.99996 1.66675Z" fill="white"/>
</mask>
<g mask="url(#mask0)">
</g>
</svg>
