<svg width="56" height="56" viewBox="0 0 56 56" fill="none" xmlns="http://www.w3.org/2000/svg">
<g id="checkmark-circle-fill">
<path id="&#240;&#159;&#142;&#168; Icon color" fill-rule="evenodd" clip-rule="evenodd" d="M38.0225 22.4127L27.3638 36.4127C26.9251 36.989 26.2461 37.3297 25.5228 37.3343H25.5065C24.7901 37.3343 24.1135 37.003 23.6701 36.4383L17.9955 29.1887C17.2021 28.176 17.3795 26.7083 18.3945 25.915C19.4071 25.1193 20.8771 25.2967 21.6705 26.314L25.4808 31.1813L34.3101 19.587C35.0895 18.5627 36.5525 18.362 37.5815 19.1437C38.6058 19.9253 38.8041 21.3883 38.0225 22.4127ZM28.0008 4.66772C15.1138 4.66772 4.66748 15.1141 4.66748 28.0011C4.66748 40.8857 15.1138 51.3344 28.0008 51.3344C40.8878 51.3344 51.3342 40.8857 51.3342 28.0011C51.3342 15.1141 40.8878 4.66772 28.0008 4.66772Z" fill="#E91E63"/>
<mask id="mask0" mask-type="alpha" maskUnits="userSpaceOnUse" x="4" y="4" width="48" height="48">
<path id="&#240;&#159;&#142;&#168; Icon color_2" fill-rule="evenodd" clip-rule="evenodd" d="M38.0225 22.4127L27.3638 36.4127C26.9251 36.989 26.2461 37.3297 25.5228 37.3343H25.5065C24.7901 37.3343 24.1135 37.003 23.6701 36.4383L17.9955 29.1887C17.2021 28.176 17.3795 26.7083 18.3945 25.915C19.4071 25.1193 20.8771 25.2967 21.6705 26.314L25.4808 31.1813L34.3101 19.587C35.0895 18.5627 36.5525 18.362 37.5815 19.1437C38.6058 19.9253 38.8041 21.3883 38.0225 22.4127ZM28.0008 4.66772C15.1138 4.66772 4.66748 15.1141 4.66748 28.0011C4.66748 40.8857 15.1138 51.3344 28.0008 51.3344C40.8878 51.3344 51.3342 40.8857 51.3342 28.0011C51.3342 15.1141 40.8878 4.66772 28.0008 4.66772Z" fill="white"/>
</mask>
<g mask="url(#mask0)">
</g>
</g>
</svg>
