<svg width="24" height="24" viewBox="0 0 24 24" fill="none" xmlns="http://www.w3.org/2000/svg">
<path fill-rule="evenodd" clip-rule="evenodd" d="M12 20C7.589 20 4 16.411 4 12C4 7.589 7.589 4 12 4C16.411 4 20 7.589 20 12C20 16.411 16.411 20 12 20ZM12 2C6.477 2 2 6.478 2 12C2 17.522 6.477 22 12 22C17.523 22 22 17.522 22 12C22 6.478 17.523 2 12 2Z" fill="white"/>
<mask id="mask0" mask-type="alpha" maskUnits="userSpaceOnUse" x="2" y="2" width="20" height="20">
<path fill-rule="evenodd" clip-rule="evenodd" d="M12 20C7.589 20 4 16.411 4 12C4 7.589 7.589 4 12 4C16.411 4 20 7.589 20 12C20 16.411 16.411 20 12 20ZM12 2C6.477 2 2 6.478 2 12C2 17.522 6.477 22 12 22C17.523 22 22 17.522 22 12C22 6.478 17.523 2 12 2Z" fill="white"/>
</mask>
<g mask="url(#mask0)">
</g>
<path fill-rule="evenodd" clip-rule="evenodd" d="M7 12C7 11.448 7.448 11 8 11C8.552 11 9 11.448 9 12C9 12.552 8.552 13 8 13C7.448 13 7 12.552 7 12ZM12 11C11.448 11 11 11.448 11 12C11 12.552 11.448 13 12 13C12.552 13 13 12.552 13 12C13 11.448 12.552 11 12 11ZM16 11C15.448 11 15 11.448 15 12C15 12.552 15.448 13 16 13C16.552 13 17 12.552 17 12C17 11.448 16.552 11 16 11Z" fill="white"/>
</svg>
