<svg width="20" height="20" viewBox="0 0 20 20" fill="none" xmlns="http://www.w3.org/2000/svg">
<path fill-rule="evenodd" clip-rule="evenodd" d="M5.50033 3.33329C4.30533 3.33329 3.33366 4.30496 3.33366 5.49996C3.33366 11.6566 8.34282 16.6666 14.5003 16.6666C15.6945 16.6666 16.667 15.695 16.667 14.5C16.667 14.4075 16.6612 14.3166 16.6495 14.2266L12.7995 13.3433C12.7228 13.49 12.6387 13.6491 12.562 13.7975C12.182 14.5225 11.907 15.0491 11.2053 14.7666C8.45033 13.8 6.20116 11.55 5.22199 8.76163C4.92449 8.10746 5.49116 7.81079 6.20949 7.43579C6.35533 7.35913 6.51283 7.27663 6.65699 7.20163L5.77366 3.35079C5.68116 3.33913 5.59116 3.33329 5.50033 3.33329ZM14.5003 18.3333C7.42366 18.3333 1.66699 12.5766 1.66699 5.49996C1.66699 3.38579 3.38616 1.66663 5.50033 1.66663C5.71699 1.66663 5.93116 1.68496 6.13866 1.72079C6.34116 1.75329 6.54449 1.80496 6.74283 1.87329C7.01366 1.96746 7.21783 2.19496 7.28199 2.47496L8.42283 7.44496C8.48616 7.71829 8.40699 8.00496 8.21199 8.20829C8.09866 8.32663 8.09616 8.32913 7.06283 8.86996C7.89949 10.6816 9.35366 12.1308 11.1287 12.9391C11.6703 11.905 11.6737 11.9016 11.792 11.7883C11.9953 11.5933 12.2837 11.5175 12.5553 11.5775L17.5262 12.7183C17.8053 12.7825 18.0328 12.9858 18.1262 13.2566C18.1945 13.4533 18.2462 13.6566 18.2803 13.8658C18.3153 14.0716 18.3337 14.285 18.3337 14.5C18.3337 16.6141 16.6137 18.3333 14.5003 18.3333Z" fill="white"/>
<mask id="mask0" mask-type="alpha" maskUnits="userSpaceOnUse" x="1" y="1" width="18" height="18">
<path fill-rule="evenodd" clip-rule="evenodd" d="M5.50033 3.33329C4.30533 3.33329 3.33366 4.30496 3.33366 5.49996C3.33366 11.6566 8.34282 16.6666 14.5003 16.6666C15.6945 16.6666 16.667 15.695 16.667 14.5C16.667 14.4075 16.6612 14.3166 16.6495 14.2266L12.7995 13.3433C12.7228 13.49 12.6387 13.6491 12.562 13.7975C12.182 14.5225 11.907 15.0491 11.2053 14.7666C8.45033 13.8 6.20116 11.55 5.22199 8.76163C4.92449 8.10746 5.49116 7.81079 6.20949 7.43579C6.35533 7.35913 6.51283 7.27663 6.65699 7.20163L5.77366 3.35079C5.68116 3.33913 5.59116 3.33329 5.50033 3.33329ZM14.5003 18.3333C7.42366 18.3333 1.66699 12.5766 1.66699 5.49996C1.66699 3.38579 3.38616 1.66663 5.50033 1.66663C5.71699 1.66663 5.93116 1.68496 6.13866 1.72079C6.34116 1.75329 6.54449 1.80496 6.74283 1.87329C7.01366 1.96746 7.21783 2.19496 7.28199 2.47496L8.42283 7.44496C8.48616 7.71829 8.40699 8.00496 8.21199 8.20829C8.09866 8.32663 8.09616 8.32913 7.06283 8.86996C7.89949 10.6816 9.35366 12.1308 11.1287 12.9391C11.6703 11.905 11.6737 11.9016 11.792 11.7883C11.9953 11.5933 12.2837 11.5175 12.5553 11.5775L17.5262 12.7183C17.8053 12.7825 18.0328 12.9858 18.1262 13.2566C18.1945 13.4533 18.2462 13.6566 18.2803 13.8658C18.3153 14.0716 18.3337 14.285 18.3337 14.5C18.3337 16.6141 16.6137 18.3333 14.5003 18.3333Z" fill="white"/>
</mask>
<g mask="url(#mask0)">
</g>
</svg>
