<svg width="20" height="20" viewBox="0 0 20 20" fill="none" xmlns="http://www.w3.org/2000/svg">
<path fill-rule="evenodd" clip-rule="evenodd" d="M5.83382 9.1661C5.83382 8.7061 6.20715 8.33277 6.66715 8.33277C7.12715 8.33277 7.50048 8.7061 7.50048 9.1661C7.50048 9.6261 7.12715 9.99943 6.66715 9.99943C6.20715 9.99943 5.83382 9.6261 5.83382 9.1661ZM10.0005 8.33277C9.54048 8.33277 9.16715 8.7061 9.16715 9.1661C9.16715 9.6261 9.54048 9.99943 10.0005 9.99943C10.4605 9.99943 10.8338 9.6261 10.8338 9.1661C10.8338 8.7061 10.4605 8.33277 10.0005 8.33277ZM13.3338 8.33277C12.8738 8.33277 12.5005 8.7061 12.5005 9.1661C12.5005 9.6261 12.8738 9.99943 13.3338 9.99943C13.7938 9.99943 14.1672 9.6261 14.1672 9.1661C14.1672 8.7061 13.7938 8.33277 13.3338 8.33277ZM16.5825 10.2452C16.16 12.9569 13.9742 15.206 11.2667 15.7135C9.95916 15.9602 8.62749 15.8194 7.41916 15.3077C7.07666 15.1627 6.72249 15.0894 6.37499 15.0894C6.21666 15.0894 6.05999 15.1044 5.90583 15.1352L3.56249 15.6035L4.03166 13.256C4.12999 12.7685 4.06999 12.2469 3.85916 11.7477C3.34749 10.5394 3.20749 9.20852 3.45333 7.90018C3.96083 5.19268 6.20916 3.00685 8.92166 2.58435C11.08 2.24852 13.1908 2.92852 14.7142 4.45185C16.2383 5.97602 16.9192 8.08768 16.5825 10.2452ZM15.8933 3.27352C13.9892 1.37018 11.3558 0.521017 8.66499 0.93685C5.26749 1.46685 2.45083 4.20352 1.81499 7.59268C1.50833 9.22435 1.68499 10.886 2.32416 12.3968C2.40499 12.5893 2.42999 12.7685 2.39833 12.9293L1.68333 16.5027C1.62833 16.776 1.71416 17.0585 1.91166 17.2552C2.06916 17.4135 2.28166 17.4993 2.50083 17.4993C2.55499 17.4993 2.60916 17.4943 2.66416 17.4835L6.23333 16.7693C6.43833 16.7302 6.63666 16.7877 6.76916 16.8427C8.28166 17.4818 9.94333 17.6577 11.5733 17.3518C14.9633 16.716 17.7 13.8993 18.23 10.5018C18.6483 7.81268 17.7975 5.17768 15.8933 3.27352Z" fill="#313439"/>
<mask id="mask0" mask-type="alpha" maskUnits="userSpaceOnUse" x="1" y="0" width="18" height="18">
<path fill-rule="evenodd" clip-rule="evenodd" d="M5.83382 9.1661C5.83382 8.7061 6.20715 8.33277 6.66715 8.33277C7.12715 8.33277 7.50048 8.7061 7.50048 9.1661C7.50048 9.6261 7.12715 9.99943 6.66715 9.99943C6.20715 9.99943 5.83382 9.6261 5.83382 9.1661ZM10.0005 8.33277C9.54048 8.33277 9.16715 8.7061 9.16715 9.1661C9.16715 9.6261 9.54048 9.99943 10.0005 9.99943C10.4605 9.99943 10.8338 9.6261 10.8338 9.1661C10.8338 8.7061 10.4605 8.33277 10.0005 8.33277ZM13.3338 8.33277C12.8738 8.33277 12.5005 8.7061 12.5005 9.1661C12.5005 9.6261 12.8738 9.99943 13.3338 9.99943C13.7938 9.99943 14.1672 9.6261 14.1672 9.1661C14.1672 8.7061 13.7938 8.33277 13.3338 8.33277ZM16.5825 10.2452C16.16 12.9569 13.9742 15.206 11.2667 15.7135C9.95916 15.9602 8.62749 15.8194 7.41916 15.3077C7.07666 15.1627 6.72249 15.0894 6.37499 15.0894C6.21666 15.0894 6.05999 15.1044 5.90583 15.1352L3.56249 15.6035L4.03166 13.256C4.12999 12.7685 4.06999 12.2469 3.85916 11.7477C3.34749 10.5394 3.20749 9.20852 3.45333 7.90018C3.96083 5.19268 6.20916 3.00685 8.92166 2.58435C11.08 2.24852 13.1908 2.92852 14.7142 4.45185C16.2383 5.97602 16.9192 8.08768 16.5825 10.2452ZM15.8933 3.27352C13.9892 1.37018 11.3558 0.521017 8.66499 0.93685C5.26749 1.46685 2.45083 4.20352 1.81499 7.59268C1.50833 9.22435 1.68499 10.886 2.32416 12.3968C2.40499 12.5893 2.42999 12.7685 2.39833 12.9293L1.68333 16.5027C1.62833 16.776 1.71416 17.0585 1.91166 17.2552C2.06916 17.4135 2.28166 17.4993 2.50083 17.4993C2.55499 17.4993 2.60916 17.4943 2.66416 17.4835L6.23333 16.7693C6.43833 16.7302 6.63666 16.7877 6.76916 16.8427C8.28166 17.4818 9.94333 17.6577 11.5733 17.3518C14.9633 16.716 17.7 13.8993 18.23 10.5018C18.6483 7.81268 17.7975 5.17768 15.8933 3.27352Z" fill="white"/>
</mask>
<g mask="url(#mask0)">
</g>
</svg>
