<svg width="48" height="48" viewBox="0 0 48 48" fill="none" xmlns="http://www.w3.org/2000/svg">
<circle cx="24" cy="24" r="23.5" fill="white" stroke="#E5E5EA"/>
<path fill-rule="evenodd" clip-rule="evenodd" d="M24 13.9005C25.5571 13.9005 26.8235 15.1668 26.8235 16.724C26.8235 18.2812 25.5571 19.5475 24 19.5475C22.4428 19.5475 21.1764 18.2812 21.1764 16.724C21.1764 15.1668 22.4428 13.9005 24 13.9005ZM24.0001 22.371C27.1144 22.371 29.6471 19.8383 29.6471 16.724C29.6471 13.6096 27.1144 11.0769 24.0001 11.0769C20.8857 11.0769 18.353 13.6096 18.353 16.724C18.353 19.8383 20.8857 22.371 24.0001 22.371Z" fill="#8E8E93"/>
<path fill-rule="evenodd" clip-rule="evenodd" d="M24.0005 23.7827C18.5525 23.7827 14.1182 28.2157 14.1182 33.6651C14.1182 34.4444 14.7492 35.0768 15.5299 35.0768C16.3106 35.0768 16.9417 34.4444 16.9417 33.6651C16.9417 29.7728 20.1083 26.6062 24.0005 26.6062C27.8928 26.6062 31.0593 29.7728 31.0593 33.6651C31.0593 34.4444 31.6904 35.0768 32.4711 35.0768C33.2518 35.0768 33.8829 34.4444 33.8829 33.6651C33.8829 28.2157 29.4485 23.7827 24.0005 23.7827Z" fill="#8E8E93"/>
</svg>
